<?xml version="1.0" encoding="utf-8"?>
<!-- Generator: Adobe Illustrator 23.0.1, SVG Export Plug-In . SVG Version: 6.00 Build 0)  -->
<svg version="1.1" id="Layer_1" xmlns="http://www.w3.org/2000/svg" xmlns:xlink="http://www.w3.org/1999/xlink" x="0px" y="0px"
	 viewBox="0 0 78.6 48.24" style="enable-background:new 0 0 78.6 48.24;" xml:space="preserve">
<style type="text/css">
	.st0{clip-path:url(#SVGID_2_);}
	.st1{clip-path:url(#SVGID_4_);}
	.st2{clip-path:url(#SVGID_6_);}
</style>
<g>
	<g>
		<defs>
			<rect id="SVGID_1_" width="78.6" height="48.36"/>
		</defs>
		<clipPath id="SVGID_2_">
			<use xlink:href="#SVGID_1_"  style="overflow:visible;"/>
		</clipPath>
		<path class="st0" d="M27.03,11.08c-0.01,0.52-0.02,1.08-0.02,1.63c-0.03,0.33-0.15,3.88-0.15,5.72c-0.03,3.45-0.37,5-2.28,5.02
			c-1.43,0.03-1.82-0.55-1.95-1.49c-0.11-0.72-0.23-2.14-0.23-4.83c-0.02-2.18,0.04-4.89,0.09-6.68c0.01-0.37,0.02-0.71,0.02-0.99
			c1.31,0.22,2.01-0.06,2.72-1.04c0.26-0.49,0.42-1.47-0.08-2.3c0.53,0,0.93,0.12,1.2,0.37C27.09,7.16,27.07,8.81,27.03,11.08
			 M18.87,6.84c-0.25,0.53-0.29,1.46-0.31,2.67l-0.01,0.47c-0.15,4.43-0.11,8.3,0.12,12.94c0.11,1.99,1.19,4.37,5.71,4.37
			c1.36,0,3.75-0.61,4.55-1.61c1.12-1.36,1.5-3.2,1.71-5.55c0.21-2.55,0.21-5.15,0.21-8.16c0-1.25-0.02-2.99-0.12-4.15
			c-0.32-3.52-1.26-5.33-5.5-5.42c-1.86-0.03-2.93,0.34-3.87,1.38c-0.38-0.45-0.6-0.77-1.05-1.63l-0.11-0.21l-0.23,0.07
			c-0.68,0.21-1.44,0.61-2.04,0.93c-0.18,0.1-0.35,0.19-0.5,0.26l-0.21,0.1l0.06,0.22C17.71,5.13,17.97,5.77,18.87,6.84"/>
		<path class="st0" d="M58.14,9.45l-0.01,0.21c-0.07,0.95-0.11,1.66-0.16,2.61l-0.04,0.97c-0.06,1.53-0.1,2.73-0.48,4.41
			c-0.08,0.36-0.54,2.15-1.83,2.15c-1.04,0-1.41-0.42-1.61-1.81c-0.31-2.13-0.24-3.79-0.11-5.75c0.06-1.01,0.14-1.64,0.26-2.67
			c0.1-0.84,0.19-1.39,0.58-2.04c0.5-0.82,1.08-1.23,1.83-1.29c0.1-0.01,0.2-0.01,0.3-0.01c0.15,0,0.32,0.01,0.49,0.03
			c0.22,0.02,0.33,0.04,0.42,0.14c0.23,0.24,0.29,0.69,0.33,1.02C58.2,8.08,58.17,8.78,58.14,9.45 M57.96,32.49
			c-0.23,0.52-0.8,1.31-1.44,1.34c-0.18,0.01-0.33-0.05-0.48-0.19c-0.2-0.19-0.33-0.49-0.34-0.77c-0.01-1.13,1.29-2.61,2.34-3.8
			c0.08-0.09,0.16-0.18,0.23-0.26C58.32,30.73,58.23,31.82,57.96,32.49 M61.88,28.86l0.03-3.12c0.04-3.73,0.08-7.14,0.12-10.59
			l0.1-8.26h-0.01c-0.03-1.74-0.36-3.36-2.54-4.1c-1.39-0.47-2.91-0.26-4.23-0.03c-0.99,0.17-2.12,0.45-2.96,1.16
			c-1.16,0.99-1.55,2.33-1.9,3.71l-0.03,0.11c-0.97,3.9-1.01,8.3-0.11,12.74c0.16,0.76,0.58,1.74,1.04,2.37
			c0.9,1.24,2.46,1.84,3.8,1.48c1.23-0.34,2.22-0.89,2.9-1.6l0,1.48c-0.22,0.29-1.47,1.45-2.26,2.14c-1.35,1.18-3.64,3.66-3.78,7.02
			c-0.06,1.46,0.39,2.7,1.24,3.41c0.72,0.6,1.63,0.77,2.43,0.77c0.29,0,0.57-0.02,0.82-0.06c1.17-0.16,2.19-0.57,2.97-1.2
			c1.22-0.99,1.77-2.44,2.01-3.48C61.85,31.5,61.86,30.16,61.88,28.86"/>
		<path class="st0" d="M64.42,3.09c-0.08,0.82-0.21,1.22-0.67,2.01l-0.21,0.36l1.5,1.02l0.26-0.27c1.23-1.26,1.78-3.4,1.7-4.46
			c-0.05-0.69-0.36-1.22-0.9-1.53c-0.28-0.16-0.68-0.24-1.07-0.21c-0.67,0.05-1.17,0.38-1.37,0.89c-0.07,0.23-0.16,0.57-0.13,0.94
			C63.58,2.42,63.9,2.87,64.42,3.09"/>
		<path class="st0" d="M3.24,14.27c-0.03,1.31-0.05,2.67-0.04,3.92c0,0.43,0,1.16-0.01,2.03c-0.01,2.3-0.03,5.46,0.01,6.3l0.01,0.24
			l0.23,0.03c0.83,0.11,2.55,0.16,3.47-0.06l0.22-0.05v-0.23c0-1.44,0.01-2.79,0.02-4.13c0.01-1.95,0.03-3.87,0.01-5.98
			c0-3.36,0.01-5.57,0.03-6.26c0.66-1.23,1.35-2.5,2.52-2.89c0.08-0.01,0.16-0.02,0.24-0.03c0.47-0.08,0.82-0.13,1.19,0.65
			c0.28,1.08,0.26,6.2,0.26,7.89l0,0.44c0,1.16,0.02,2.17,0.03,3.19c0.02,1.28,0.04,2.55,0.03,4.12l0,0.36l0,0
			c0,1.45,0.01,2.34,0.03,2.73l0.01,0.24l0.23,0.03c0.4,0.06,1.01,0.09,1.64,0.09c0.67,0,1.35-0.04,1.83-0.16l0.22-0.05v-0.23
			c0-1.44,0.01-2.79,0.02-4.13c0.01-1.95,0.03-3.87,0.01-5.98l0-0.32c0-0.64,0.01-1.35,0.01-2.11c0.03-3.12,0.06-7-0.35-8.92
			c-0.58-1.7-1.77-2.52-3.63-2.52c-0.46,0-0.95,0.06-1.4,0.13c-1.84,0.5-3.01,1.81-3.66,2.77C5.5,3.56,4.48,3.17,4.04,3.01
			c-0.8-0.32-1.39-0.35-1.92-0.35c-0.59,0-1.19,0-1.78,0.03L0.1,2.7L0.06,2.93C0,3.31,0,3.74,0,4.15c0,0.7,0.03,1.42,0.06,1.82
			l0.02,0.26l0.26,0c1.72,0.02,2.01,0.37,2.12,0.5L2.52,6.8C2.92,7.21,3.2,8.31,3.23,9.16C3.32,10.52,3.28,12.34,3.24,14.27"/>
		<path class="st0" d="M31.76,6.24l0.26,0c1.72,0.02,2.01,0.37,2.12,0.5L34.2,6.8c0.41,0.41,0.68,1.51,0.71,2.35
			c0.09,1.36,0.05,3.18,0.01,5.1c-0.03,1.31-0.05,2.67-0.04,3.93c0,0.43,0,1.16-0.01,2.03c-0.01,2.3-0.03,5.46,0.01,6.3l0.01,0.24
			l0.23,0.03c0.83,0.11,2.55,0.16,3.47-0.06l0.22-0.05v-0.23c0-1.43,0.01-2.78,0.02-4.11c0.01-1.96,0.03-3.88,0.01-6
			c0-3.36,0.01-5.57,0.03-6.26c0.66-1.23,1.35-2.5,2.52-2.89c0.08-0.01,0.16-0.02,0.24-0.03c0.47-0.08,0.81-0.13,1.19,0.65
			c0.28,1.08,0.26,6.2,0.26,7.89l0,0.44c0,1.16,0.02,2.18,0.03,3.2c0.02,1.27,0.04,2.55,0.03,4.11l0,0.36l0,0
			c0,1.48,0.01,2.35,0.03,2.73l0.01,0.24l0.23,0.03c0.4,0.06,1.01,0.09,1.64,0.09c0.67,0,1.35-0.04,1.83-0.16l0.22-0.05v-0.23
			c0-1.43,0.01-2.78,0.02-4.11c0.01-1.96,0.03-3.88,0.01-6l0-0.23l0-0.09c0-0.64,0.01-1.35,0.01-2.11c0.03-3.12,0.06-7-0.35-8.92
			c-0.58-1.7-1.77-2.52-3.63-2.52c-0.46,0-0.95,0.06-1.4,0.13c-1.84,0.5-3.02,1.81-3.66,2.77c-0.91-1.8-1.94-2.18-2.38-2.35
			c-0.8-0.32-1.39-0.35-1.92-0.35c-0.59,0-1.19,0-1.78,0.03L31.78,2.7l-0.04,0.23c-0.06,0.38-0.06,0.81-0.06,1.23
			c0,0.72,0.03,1.43,0.06,1.82L31.76,6.24z"/>
	</g>
	<polygon points="6.96,41.03 5.46,43.81 4.74,43.81 4.74,41.03 2.97,41.03 2.97,48.24 4.74,48.24 4.74,45.31 5.46,45.31 6.99,48.24 
		8.96,48.24 6.91,44.5 6.91,44.48 8.85,41.03 	"/>
	<polygon points="14.44,41.03 14.44,43.91 11.82,43.91 11.82,41.03 10.05,41.03 10.05,48.24 11.82,48.24 11.82,45.42 14.44,45.42 
		14.44,48.24 16.21,48.24 16.21,41.03 	"/>
	<g>
		<defs>
			<rect id="SVGID_3_" width="78.6" height="48.36"/>
		</defs>
		<clipPath id="SVGID_4_">
			<use xlink:href="#SVGID_3_"  style="overflow:visible;"/>
		</clipPath>
		<path class="st1" d="M19.78,45.31l0.41-1.4c0.13-0.45,0.29-1.24,0.29-1.24h0.02c0,0,0.16,0.79,0.29,1.24l0.4,1.4H19.78z
			 M19.56,41.03l-2.45,7.21h1.82l0.43-1.51h2.25l0.44,1.51h1.82l-2.45-7.21H19.56z"/>
		<path class="st1" d="M28.02,46.75c-1.08,0-1.95-0.93-1.95-2.16c0-1.18,0.87-2.07,1.95-2.07c1.08,0,1.95,0.89,1.95,2.07
			C29.96,45.82,29.1,46.75,28.02,46.75 M28.02,40.91c-2.18,0-3.77,1.61-3.77,3.68c0,2.12,1.59,3.77,3.77,3.77
			c2.18,0,3.77-1.65,3.77-3.77C31.79,42.52,30.2,40.91,28.02,40.91"/>
		<path class="st1" d="M40.64,41.03l-1.05,3.05c-0.16,0.46-0.36,1.19-0.36,1.19H39.2c0,0-0.2-0.73-0.36-1.19l-1.05-3.05h-1.92
			l-0.6,7.21h1.78l0.22-3.25c0.04-0.54,0-1.21,0-1.21h0.02c0,0,0.24,0.76,0.4,1.21l0.76,2.09h1.51l0.76-2.09
			c0.16-0.45,0.4-1.21,0.4-1.21h0.02c0,0-0.04,0.67,0,1.21l0.22,3.25h1.77l-0.59-7.21H40.64z"/>
		<path class="st1" d="M46.49,45.31l0.41-1.4c0.13-0.45,0.29-1.24,0.29-1.24h0.02c0,0,0.16,0.79,0.29,1.24l0.4,1.4H46.49z
			 M46.27,41.03l-2.45,7.21h1.82l0.43-1.51h2.25l0.44,1.51h1.82l-2.45-7.21H46.27z"/>
		<path class="st1" d="M55.82,44.4c0,0.45,0.08,1.23,0.08,1.23h-0.02c0,0-0.32-0.76-0.6-1.23l-2-3.37h-1.79v7.21h1.77v-3.36
			c0-0.45-0.08-1.23-0.08-1.23h0.02c0,0,0.32,0.76,0.61,1.23l2.01,3.36h1.78v-7.21h-1.77V44.4z"/>
		<path class="st1" d="M65.64,45.67h1.02v0.55c0,0-0.62,0.52-1.46,0.52c-1.12,0-2.07-0.82-2.07-2.19c0-1.07,0.62-2.04,2.13-2.04
			c1.02,0,1.76,0.67,1.76,0.67l0.85-1.32c0,0-0.93-0.96-2.77-0.96c-2.2,0-3.78,1.61-3.78,3.71c0,2.36,1.69,3.74,3.54,3.74
			c1.2,0,1.9-0.63,1.9-0.63h0.02c0,0-0.01,0.15-0.01,0.3v0.2h1.47v-4.08h-2.58V45.67z"/>
		<path class="st1" d="M71.43,45.31l0.41-1.4c0.13-0.45,0.29-1.24,0.29-1.24h0.02c0,0,0.16,0.79,0.29,1.24l0.4,1.4H71.43z
			 M71.22,41.03l-2.45,7.21h1.82l0.43-1.51h2.25l0.44,1.51h1.82l-2.45-7.21H71.22z"/>
	</g>
	<rect x="76.43" y="41.03" width="1.77" height="7.21"/>
	<rect x="2.87" y="31.82" width="46.83" height="3.64"/>
	<rect x="63.93" y="31.82" width="14.67" height="3.57"/>
	<g>
		<defs>
			<rect id="SVGID_5_" width="78.6" height="48.36"/>
		</defs>
		<clipPath id="SVGID_6_">
			<use xlink:href="#SVGID_5_"  style="overflow:visible;"/>
		</clipPath>
		<path class="st2" d="M74.32,14.02l-0.08,0.05L74.32,14.02c-0.12-0.15-0.24-0.3-0.36-0.45c-0.7-0.88-1.43-1.79-1.91-2.78
			c-0.25-0.52-0.61-1.43-0.81-2.29c-0.06-0.24,0.04-0.77,0.15-1.01c0.31-0.65,0.78-0.95,1.46-0.96c0.01,0,0.02,0,0.03,0
			c0.45,0,1.06,0.14,1.29,0.38c0.39,0.41,0.45,1.12,0.51,1.75l0.04,0.66l3.48-0.03l0-0.27c-0.01-0.37-0.07-1.37-0.07-1.39
			c-0.02-1.49-1.16-3.37-1.64-3.85c-0.6-0.6-1.42-1.02-2.28-1.19c-1.31-0.25-2.64-0.1-3.64,0.41c-0.53,0.28-1.07,0.71-1.6,1.28
			c-0.55,0.6-0.95,1.22-1.16,1.83c-0.42,1.18-0.45,2.56-0.1,4c0.54,2.2,1.95,4.07,3.25,5.61c0.52,0.62,1.06,1.25,1.45,1.88
			c0.42,0.67,0.71,1.56,0.81,2.52c0.04,0.34,0.05,0.68,0.03,1.03c-0.04,1.01-0.36,1.69-1.82,2.12c-0.72,0.21-1.8,0.09-2.39-0.54
			c-0.18-0.2-0.32-0.47-0.4-0.78c-0.13-0.51-0.12-1.24-0.11-1.84c0-0.15,0-0.29,0-0.42v-0.09l-3.25,0.01l-0.09,0.25
			c-0.14,0.42-0.23,0.91-0.28,1.55c0,2.12,1.27,4.22,3.08,5.1c0.81,0.38,1.82,0.57,2.82,0.56c0.04,0,0.09,0,0.13,0.01
			c0.07,0,0.15,0.01,0.22,0.01c0.01,0,0.02,0,0.03,0c1.91-0.03,3.17-0.57,4.49-1.95c1.73-1.81,2.69-5.13,0.18-9.03
			C75.4,15.38,74.86,14.69,74.32,14.02"/>
	</g>
</g>
</svg>
