<?xml version="1.0" encoding="utf-8"?>
<!-- Generator: Adobe Illustrator 23.0.1, SVG Export Plug-In . SVG Version: 6.00 Build 0)  -->
<svg version="1.1" id="Layer_1" xmlns="http://www.w3.org/2000/svg" xmlns:xlink="http://www.w3.org/1999/xlink" x="0px" y="0px"
	 viewBox="0 0 100 100" style="enable-background:new 0 0 100 100;" xml:space="preserve">
<style type="text/css">
	.st0{fill:#FFFFFF;}
</style>
<path d="M163.23,20.63c-15.53,0-28.12,12.59-28.12,28.12s12.59,28.12,28.12,28.12s28.12-12.59,28.12-28.12
	S178.76,20.63,163.23,20.63z M171.22,38.47l-2.9,0c-2.27,0-2.71,1.08-2.71,2.66v3.49h5.42l-0.71,5.47h-4.71v14.04l-5.65,0V50.1
	h-4.72v-5.47h4.73V40.6c0-4.68,2.86-7.23,7.04-7.23c2,0,3.72,0.15,4.22,0.22V38.47z"/>
<g>
	<circle cx="-63.23" cy="48.75" r="28.12"/>
	<path class="st0" d="M-60.85,64.14V50.1h4.71l0.71-5.47h-5.42v-3.49c0-1.58,0.44-2.66,2.71-2.66l2.9,0v-4.89
		c-0.5-0.07-2.22-0.22-4.22-0.22c-4.18,0-7.04,2.55-7.04,7.23v4.04h-4.73v5.47h4.72v14.04L-60.85,64.14L-60.85,64.14z"/>
</g>
<g>
	<path d="M236.65,42.25c-0.22-2.36-1.72-4.01-4.06-4.37c-1.2-0.18-2.42-0.22-3.64-0.23c-2.17-0.04-4.33-0.03-6.5,0
		c-1.09,0.01-2.19,0.06-3.27,0.17c-2.45,0.24-4.16,1.96-4.39,4.4c-0.1,1.03-0.17,2.08-0.16,3.12c0.01,3.13,0.04,6.27,0.11,9.4
		c0.02,1.1,0.33,2.16,1.01,3.07c1,1.33,2.41,1.85,3.99,1.93c1.99,0.1,3.97,0.12,5.96,0.17c0-0.02,0-0.04,0-0.05
		c1.1,0,2.21,0.02,3.31-0.01c1.07-0.03,2.14-0.07,3.21-0.17c2.26-0.21,3.88-1.59,4.3-3.83c0.23-1.23,0.26-2.5,0.29-3.76
		c0.04-2.22,0.03-4.44,0-6.65C236.8,44.37,236.75,43.31,236.65,42.25z M225.65,55.71c-3.83-0.03-6.91-3.17-6.89-7.01
		c0.02-3.84,3.16-6.94,6.98-6.92c3.86,0.02,6.98,3.16,6.95,6.98C232.66,52.65,229.53,55.74,225.65,55.71z M232.95,43.13
		c-0.91,0-1.61-0.71-1.62-1.62c0-0.92,0.72-1.64,1.64-1.64c0.9,0,1.62,0.73,1.62,1.63C234.6,42.41,233.87,43.13,232.95,43.13z"/>
	<path d="M225.8,44.24c-2.59,0-4.58,1.97-4.58,4.55c0,2.48,2.03,4.46,4.57,4.46c2.44,0,4.44-2.03,4.44-4.5
		C230.23,46.27,228.23,44.24,225.8,44.24z"/>
	<path d="M225.72,20.63c-15.53,0-28.12,12.59-28.12,28.12s12.59,28.12,28.12,28.12c15.53,0,28.12-12.59,28.12-28.12
		S241.25,20.63,225.72,20.63z M239.25,52.94c-0.02,1.38-0.05,2.77-0.48,4.11c-0.92,2.84-2.89,4.51-5.8,4.97
		c-1.45,0.23-2.94,0.21-4.42,0.27c-0.95,0.04-1.9,0.01-2.84,0.01c0,0.01,0,0.02,0,0.03c-1.85-0.04-3.71-0.06-5.56-0.11
		c-1.38-0.04-2.74-0.27-3.98-0.92c-2.16-1.13-3.4-2.95-3.74-5.33c-0.21-1.46-0.24-2.94-0.26-4.42c-0.04-2.18-0.03-4.35,0.01-6.53
		c0.02-1.43,0.02-2.87,0.41-4.28c0.84-3.02,2.85-4.79,5.9-5.29c1.41-0.23,2.86-0.24,4.29-0.26c2.38-0.03,4.77-0.01,7.15,0.02
		c1.27,0.02,2.54,0.04,3.78,0.39c3.02,0.84,4.79,2.85,5.29,5.9c0.23,1.43,0.24,2.9,0.27,4.36
		C239.31,48.22,239.28,50.58,239.25,52.94z"/>
</g>
<g>
	<circle cx="-127.86" cy="48.75" r="28.12"/>
	<g>
		<path class="st0" d="M-127.87,62.33c-1.85-0.04-3.71-0.06-5.56-0.11c-1.38-0.04-2.74-0.27-3.98-0.92
			c-2.16-1.13-3.4-2.95-3.74-5.33c-0.21-1.46-0.24-2.94-0.26-4.42c-0.04-2.18-0.03-4.35,0.01-6.53c0.02-1.43,0.02-2.87,0.41-4.28
			c0.84-3.02,2.85-4.79,5.9-5.29c1.41-0.23,2.86-0.24,4.29-0.26c2.38-0.03,4.77-0.01,7.15,0.02c1.27,0.02,2.54,0.04,3.78,0.39
			c3.02,0.84,4.79,2.85,5.29,5.9c0.23,1.43,0.24,2.9,0.27,4.36c0.04,2.36,0.01,4.73-0.02,7.09c-0.02,1.38-0.05,2.77-0.48,4.11
			c-0.92,2.84-2.89,4.51-5.8,4.97c-1.45,0.23-2.94,0.21-4.42,0.27c-0.95,0.04-1.9,0.01-2.84,0.01
			C-127.87,62.31-127.87,62.32-127.87,62.33z M-127.88,59.9c0-0.02,0-0.04,0-0.05c1.1,0,2.21,0.02,3.31-0.01
			c1.07-0.03,2.14-0.07,3.21-0.17c2.26-0.21,3.88-1.59,4.3-3.83c0.23-1.23,0.26-2.5,0.29-3.76c0.04-2.22,0.03-4.44,0-6.65
			c-0.01-1.06-0.06-2.12-0.16-3.18c-0.22-2.36-1.72-4.01-4.06-4.37c-1.2-0.18-2.42-0.22-3.64-0.23c-2.17-0.04-4.33-0.03-6.5,0
			c-1.09,0.01-2.19,0.06-3.27,0.17c-2.45,0.24-4.16,1.96-4.39,4.4c-0.1,1.03-0.17,2.08-0.16,3.12c0.01,3.13,0.04,6.27,0.11,9.4
			c0.02,1.1,0.33,2.16,1.01,3.07c1,1.33,2.41,1.85,3.99,1.93C-131.85,59.82-129.86,59.84-127.88,59.9z"/>
		<path class="st0" d="M-120.89,48.76c-0.03,3.9-3.16,6.99-7.05,6.95c-3.83-0.03-6.91-3.17-6.89-7.01c0.02-3.84,3.16-6.94,6.98-6.92
			C-123.98,41.79-120.86,44.93-120.89,48.76z M-123.35,48.74c0-2.47-2-4.51-4.43-4.51c-2.59,0-4.58,1.97-4.58,4.55
			c0,2.48,2.03,4.46,4.57,4.46C-125.36,53.24-123.35,51.21-123.35,48.74z"/>
		<path class="st0" d="M-120.63,43.13c-0.91,0-1.61-0.71-1.62-1.62c0-0.92,0.72-1.64,1.64-1.64c0.9,0,1.62,0.73,1.62,1.63
			C-118.98,42.41-119.71,43.13-120.63,43.13z"/>
	</g>
</g>
<path d="M51.49,20.63c-15.53,0-28.12,12.59-28.12,28.12s12.59,28.12,28.12,28.12s28.12-12.59,28.12-28.12S67.02,20.63,51.49,20.63z
	 M63.41,42.14c-0.36,0.38-0.78,0.71-1.18,1.04c-0.13,0.11-0.19,0.21-0.19,0.39c0.07,2.49-0.43,4.87-1.51,7.11
	c-2,4.17-5.16,7.02-9.66,8.28c-1.97,0.55-3.99,0.69-6.02,0.46c-2.33-0.25-4.48-1.01-6.46-2.24c-0.03-0.02-0.05-0.04-0.12-0.1
	c2.96,0.27,5.59-0.45,7.92-2.24c-1.35-0.09-2.52-0.57-3.51-1.48c-0.68-0.63-1.17-1.39-1.48-2.32c0.81,0.12,1.57,0.11,2.38-0.1
	c-1.48-0.37-2.63-1.15-3.43-2.39c-0.58-0.9-0.87-1.89-0.86-3.01c0.76,0.38,1.52,0.63,2.42,0.66c-1.36-1-2.15-2.28-2.34-3.89
	c-0.14-1.18,0.09-2.29,0.7-3.34c2.94,3.46,6.65,5.36,11.19,5.68c-0.03-0.3-0.08-0.58-0.09-0.85c-0.11-2.21,0.78-3.9,2.64-5.06
	c2-1.25,4.74-0.95,6.45,0.67c0.22,0.21,0.39,0.27,0.69,0.19c0.96-0.24,1.87-0.58,2.74-1.06c0.09-0.05,0.18-0.09,0.32-0.17
	c-0.42,1.27-1.18,2.22-2.23,2.98c0.32-0.06,0.64-0.1,0.96-0.18c0.33-0.08,0.67-0.17,0.99-0.28c0.32-0.1,0.63-0.22,0.94-0.34
	c0.02,0.02,0.04,0.04,0.05,0.06C64.29,41.13,63.87,41.66,63.41,42.14z"/>
<g>
	<circle cx="-213.15" cy="48.75" r="28.12"/>
	<g>
		<path class="st0" d="M-218.46,54.86c-1.35-0.09-2.52-0.57-3.51-1.48c-0.68-0.63-1.17-1.39-1.48-2.32c0.81,0.12,1.57,0.11,2.38-0.1
			c-1.48-0.37-2.63-1.15-3.43-2.39c-0.58-0.9-0.87-1.89-0.86-3.01c0.76,0.38,1.52,0.63,2.42,0.66c-1.36-1-2.15-2.28-2.34-3.89
			c-0.14-1.18,0.09-2.29,0.7-3.34c2.94,3.46,6.65,5.36,11.19,5.68c-0.03-0.3-0.08-0.58-0.09-0.85c-0.11-2.21,0.78-3.9,2.64-5.06
			c2-1.25,4.74-0.95,6.45,0.67c0.22,0.21,0.39,0.27,0.69,0.19c0.96-0.24,1.87-0.58,2.74-1.06c0.09-0.05,0.18-0.09,0.32-0.17
			c-0.42,1.27-1.18,2.21-2.23,2.98c0.32-0.06,0.64-0.1,0.96-0.18c0.33-0.08,0.67-0.17,0.99-0.28c0.32-0.1,0.63-0.22,0.94-0.34
			c0.02,0.02,0.04,0.04,0.05,0.06c-0.43,0.51-0.85,1.04-1.31,1.52c-0.36,0.38-0.78,0.71-1.18,1.04c-0.13,0.11-0.19,0.21-0.19,0.39
			c0.07,2.49-0.43,4.87-1.51,7.11c-2,4.17-5.16,7.02-9.66,8.28c-1.97,0.55-3.99,0.69-6.02,0.46c-2.33-0.25-4.48-1.01-6.46-2.24
			c-0.03-0.02-0.05-0.04-0.12-0.1C-223.42,57.36-220.78,56.65-218.46,54.86z"/>
	</g>
</g>
<g>
	<path d="M397.2,44.58c0,0-0.01,0-0.02,0c-0.01,0-0.01,0-0.02,0.01c0,2.77,0,5.54,0,8.31c0.02,0,0.03,0.01,0.04,0
		c0.04-0.02,0.07-0.03,0.1-0.05c2.36-1.36,4.71-2.73,7.07-4.09c0,0,0-0.01,0.01-0.02c0,0,0-0.01,0-0.03
		c-2.36-1.36-4.73-2.73-7.09-4.1C397.26,44.61,397.23,44.6,397.2,44.58z"/>
	<path d="M399.94,20.63c-15.53,0-28.12,12.59-28.12,28.12s12.59,28.12,28.12,28.12c15.53,0,28.12-12.59,28.12-28.12
		S415.47,20.63,399.94,20.63z M413.86,50.04c-0.02,0.6-0.05,1.2-0.09,1.81c-0.06,1.01-0.14,2.02-0.33,3.01
		c-0.07,0.38-0.18,0.76-0.33,1.12c-0.37,0.94-1.04,1.57-2,1.89c-0.45,0.15-0.91,0.26-1.39,0.3c-0.98,0.08-1.96,0.16-2.94,0.2
		c-1.23,0.06-2.47,0.08-3.7,0.11c-1,0.02-2.01,0.04-3.01,0.05c-0.68,0-1.36-0.01-2.04-0.03c-1.22-0.02-2.43-0.04-3.65-0.07
		c-0.92-0.03-1.84-0.08-2.76-0.13c-0.58-0.04-1.16-0.1-1.73-0.16c-0.46-0.05-0.91-0.17-1.34-0.34c-0.89-0.35-1.47-1-1.81-1.88
		c-0.2-0.54-0.32-1.1-0.4-1.67c-0.15-1.09-0.23-2.19-0.27-3.29c-0.03-0.71-0.06-1.42-0.08-2.13c-0.01-0.4,0.01-0.79,0.03-1.19
		c0.03-0.62,0.05-1.25,0.09-1.87c0.06-1.02,0.14-2.05,0.33-3.06c0.07-0.37,0.17-0.74,0.31-1.09c0.38-1.02,1.1-1.67,2.13-1.99
		c0.55-0.17,1.12-0.26,1.69-0.31c0.55-0.04,1.1-0.09,1.65-0.12c0.5-0.03,0.99-0.06,1.49-0.07c2.08-0.05,4.16-0.09,6.03-0.13
		c1.79,0.03,3.36,0.05,4.93,0.09c0.97,0.02,1.93,0.06,2.89,0.11c0.71,0.04,1.41,0.1,2.12,0.16c0.53,0.05,1.06,0.16,1.56,0.35
		c0.86,0.32,1.46,0.9,1.82,1.74c0.22,0.51,0.34,1.04,0.43,1.58c0.12,0.76,0.2,1.53,0.24,2.3c0.06,1.1,0.11,2.21,0.15,3.31
		C413.91,49.1,413.88,49.57,413.86,50.04z"/>
</g>
<g>
	<circle cx="-309.91" cy="48.75" r="28.12"/>
	<g>
		<path class="st0" d="M-310.11,38.98c1.79,0.03,3.36,0.05,4.93,0.09c0.97,0.02,1.93,0.06,2.89,0.11c0.71,0.04,1.41,0.1,2.12,0.16
			c0.53,0.05,1.06,0.16,1.56,0.35c0.86,0.32,1.46,0.9,1.82,1.74c0.22,0.51,0.34,1.04,0.43,1.58c0.12,0.76,0.2,1.53,0.24,2.3
			c0.06,1.1,0.11,2.21,0.15,3.31c0.02,0.47-0.01,0.94-0.03,1.41c-0.02,0.6-0.05,1.2-0.09,1.81c-0.06,1.01-0.14,2.02-0.33,3.01
			c-0.07,0.38-0.18,0.76-0.33,1.12c-0.37,0.94-1.04,1.57-2,1.89c-0.45,0.15-0.91,0.26-1.39,0.3c-0.98,0.08-1.96,0.16-2.94,0.2
			c-1.23,0.06-2.47,0.08-3.7,0.11c-1,0.02-2.01,0.04-3.01,0.05c-0.68,0-1.36-0.01-2.04-0.03c-1.22-0.02-2.43-0.04-3.65-0.07
			c-0.92-0.03-1.84-0.08-2.76-0.13c-0.58-0.04-1.16-0.1-1.73-0.16c-0.46-0.05-0.91-0.17-1.34-0.34c-0.89-0.35-1.47-1-1.81-1.88
			c-0.2-0.54-0.32-1.1-0.4-1.67c-0.15-1.09-0.23-2.19-0.27-3.29c-0.03-0.71-0.06-1.42-0.08-2.13c-0.01-0.4,0.01-0.79,0.03-1.19
			c0.03-0.62,0.05-1.25,0.09-1.87c0.06-1.02,0.14-2.05,0.33-3.06c0.07-0.37,0.17-0.74,0.31-1.09c0.38-1.02,1.1-1.67,2.13-1.99
			c0.55-0.17,1.12-0.26,1.69-0.31c0.55-0.04,1.1-0.09,1.65-0.12c0.5-0.03,0.99-0.06,1.49-0.07
			C-314.06,39.06-311.98,39.02-310.11,38.98z M-312.68,52.9c0.02,0,0.03,0.01,0.04,0c0.04-0.02,0.07-0.03,0.1-0.05
			c2.36-1.36,4.71-2.73,7.07-4.09c0,0,0-0.01,0.01-0.02c0,0,0-0.01,0-0.03c-2.36-1.36-4.73-2.73-7.09-4.1
			c-0.03-0.02-0.06-0.03-0.09-0.04c0,0-0.01,0-0.02,0c-0.01,0-0.01,0-0.02,0.01C-312.68,47.36-312.68,50.13-312.68,52.9z"/>
		<path d="M-312.68,52.9c0-2.77,0-5.54,0-8.31c0.01,0,0.01-0.01,0.02-0.01c0.01,0,0.01,0,0.02,0c0.03,0.01,0.06,0.03,0.09,0.04
			c2.37,1.37,4.73,2.73,7.09,4.1c0,0.02,0,0.02,0,0.03c0,0.01,0,0.01-0.01,0.02c-2.36,1.36-4.71,2.73-7.07,4.09
			c-0.03,0.02-0.07,0.04-0.1,0.05C-312.65,52.91-312.66,52.91-312.68,52.9z"/>
	</g>
</g>
<path d="M472.65,21.88c-15.53,0-28.12,12.59-28.12,28.12c0,15.53,12.59,28.12,28.12,28.12S500.77,65.53,500.77,50
	C500.77,34.47,488.18,21.88,472.65,21.88z M483.34,47.38c-0.52,1.27-1.19,2.45-1.95,3.59c-1.03,1.57-2.17,3.06-3.39,4.49
	c-0.9,1.05-1.86,2.04-2.97,2.88c-0.66,0.51-1.37,0.94-2.16,1.22c-0.39,0.14-0.8,0.22-1.21,0.24c-0.64,0.03-1.18-0.2-1.66-0.61
	c-0.49-0.42-0.84-0.95-1.15-1.51c-0.43-0.79-0.73-1.62-0.96-2.49c-0.53-2-1.08-4-1.63-6c-0.21-0.75-0.46-1.49-0.81-2.19
	c-0.18-0.36-0.39-0.72-0.71-0.99c-0.09-0.07-0.19-0.14-0.3-0.19c-0.17-0.08-0.35-0.09-0.52,0.01c-0.43,0.27-0.87,0.54-1.3,0.82
	c-0.09,0.05-0.17,0.11-0.26,0.18c-0.36-0.46-0.71-0.92-1.07-1.38c0.09-0.08,0.17-0.15,0.25-0.22c1.04-0.93,2.08-1.87,3.13-2.79
	c0.67-0.59,1.38-1.15,2.17-1.58c0.34-0.19,0.69-0.35,1.07-0.39c0.97-0.11,1.78,0.19,2.37,1c0.39,0.54,0.62,1.15,0.77,1.79
	c0.12,0.54,0.2,1.08,0.3,1.63c0.11,0.61,0.2,1.23,0.3,1.85c0.12,0.71,0.25,1.42,0.39,2.13c0.19,0.93,0.41,1.85,0.77,2.73
	c0.12,0.3,0.26,0.58,0.47,0.83c0.15,0.17,0.32,0.33,0.57,0.3c0.13-0.02,0.27-0.08,0.39-0.15c0.3-0.19,0.53-0.44,0.74-0.72
	c0.87-1.11,1.61-2.29,2.17-3.58c0.22-0.51,0.36-1.05,0.35-1.61c0-0.25-0.04-0.5-0.14-0.73c-0.18-0.41-0.5-0.64-0.93-0.72
	c-0.58-0.11-1.14-0.02-1.7,0.15c-0.15,0.04-0.29,0.1-0.46,0.16c0.08-0.24,0.15-0.46,0.23-0.68c0.33-0.9,0.75-1.74,1.35-2.49
	c0.87-1.09,1.98-1.78,3.36-2.02c0.78-0.14,1.56-0.17,2.34,0c1.08,0.23,1.8,0.89,2.16,1.93c0.19,0.53,0.25,1.08,0.29,1.64
	C484.07,45.11,483.8,46.26,483.34,47.38z"/>
<g>
	<circle cx="-170.27" cy="50" r="28.12"/>
	<g>
		<path class="st0" d="M-168.66,45.51c0.08-0.24,0.15-0.46,0.23-0.68c0.33-0.9,0.75-1.74,1.35-2.49c0.87-1.09,1.98-1.78,3.36-2.02
			c0.78-0.14,1.56-0.17,2.34,0c1.08,0.23,1.8,0.89,2.16,1.93c0.19,0.53,0.25,1.08,0.29,1.64c0.07,1.22-0.19,2.37-0.65,3.49
			c-0.52,1.27-1.19,2.45-1.95,3.59c-1.03,1.57-2.17,3.06-3.39,4.49c-0.9,1.05-1.86,2.04-2.97,2.88c-0.66,0.51-1.37,0.94-2.16,1.22
			c-0.39,0.14-0.8,0.22-1.21,0.24c-0.64,0.03-1.18-0.19-1.66-0.61c-0.49-0.42-0.84-0.95-1.15-1.51c-0.43-0.79-0.73-1.62-0.96-2.49
			c-0.53-2-1.08-4-1.63-6c-0.21-0.75-0.46-1.49-0.81-2.19c-0.18-0.36-0.39-0.72-0.71-0.99c-0.09-0.07-0.19-0.14-0.3-0.19
			c-0.17-0.08-0.35-0.09-0.52,0.01c-0.44,0.27-0.87,0.54-1.3,0.82c-0.09,0.05-0.17,0.11-0.26,0.18c-0.36-0.46-0.71-0.92-1.07-1.38
			c0.09-0.08,0.17-0.15,0.25-0.22c1.04-0.93,2.08-1.87,3.13-2.79c0.67-0.59,1.38-1.15,2.17-1.58c0.34-0.19,0.69-0.35,1.07-0.39
			c0.97-0.11,1.78,0.19,2.37,1c0.39,0.54,0.63,1.15,0.77,1.79c0.12,0.54,0.2,1.08,0.3,1.63c0.11,0.61,0.2,1.23,0.3,1.85
			c0.12,0.71,0.25,1.42,0.39,2.13c0.19,0.93,0.41,1.85,0.77,2.73c0.12,0.3,0.26,0.58,0.47,0.83c0.15,0.17,0.32,0.33,0.57,0.3
			c0.13-0.02,0.27-0.08,0.39-0.15c0.3-0.19,0.53-0.44,0.74-0.72c0.87-1.11,1.61-2.29,2.17-3.58c0.22-0.51,0.36-1.05,0.35-1.61
			c0-0.25-0.04-0.5-0.14-0.73c-0.18-0.41-0.5-0.64-0.93-0.72c-0.58-0.11-1.14-0.02-1.7,0.15
			C-168.34,45.39-168.48,45.45-168.66,45.51z"/>
	</g>
</g>
</svg>
