<?xml version="1.0" encoding="utf-8"?>
<!-- Generator: Adobe Illustrator 23.0.1, SVG Export Plug-In . SVG Version: 6.00 Build 0)  -->
<svg version="1.1" id="Layer_1" xmlns="http://www.w3.org/2000/svg" xmlns:xlink="http://www.w3.org/1999/xlink" x="0px" y="0px"
	 viewBox="0 0 100 100" style="enable-background:new 0 0 100 100;" xml:space="preserve">
<style type="text/css">
	.st0{fill:#FFFFFF;}
</style>
<path d="M163.2,20.6c-15.5,0-28.1,12.6-28.1,28.1s12.6,28.1,28.1,28.1s28.1-12.6,28.1-28.1S178.8,20.6,163.2,20.6z M171.2,38.5h-2.9
	c-2.3,0-2.7,1.1-2.7,2.7v3.5h5.4l-0.7,5.5h-4.7v14H160v-14h-4.7v-5.5h4.7v-4c0-4.7,2.9-7.2,7-7.2c2,0,3.7,0.2,4.2,0.2L171.2,38.5
	L171.2,38.5z"/>
<g>
	<circle cx="-63.2" cy="48.8" r="28.1"/>
	<path class="st0" d="M-60.8,64.1v-14h4.7l0.7-5.5h-5.4v-3.5c0-1.6,0.4-2.7,2.7-2.7h2.9v-4.9c-0.5-0.1-2.2-0.2-4.2-0.2
		c-4.2,0-7,2.5-7,7.2v4h-4.7v5.5h4.7v14L-60.8,64.1L-60.8,64.1z"/>
</g>
<g>
	<path d="M236.6,42.2c-0.2-2.4-1.7-4-4.1-4.4c-1.2-0.2-2.4-0.2-3.6-0.2c-2.2,0-4.3,0-6.5,0c-1.1,0-2.2,0.1-3.3,0.2
		c-2.4,0.2-4.2,2-4.4,4.4c-0.1,1-0.2,2.1-0.2,3.1c0,3.1,0,6.3,0.1,9.4c0,1.1,0.3,2.2,1,3.1c1,1.3,2.4,1.8,4,1.9c2,0.1,4,0.1,6,0.2
		c0,0,0,0,0,0c1.1,0,2.2,0,3.3,0c1.1,0,2.1-0.1,3.2-0.2c2.3-0.2,3.9-1.6,4.3-3.8c0.2-1.2,0.3-2.5,0.3-3.8c0-2.2,0-4.4,0-6.7
		C236.8,44.4,236.8,43.3,236.6,42.2z M225.6,55.7c-3.8,0-6.9-3.2-6.9-7s3.2-6.9,7-6.9c3.9,0,7,3.2,6.9,7
		C232.7,52.7,229.5,55.7,225.6,55.7z M232.9,43.1c-0.9,0-1.6-0.7-1.6-1.6c0-0.9,0.7-1.6,1.6-1.6c0.9,0,1.6,0.7,1.6,1.6
		C234.6,42.4,233.9,43.1,232.9,43.1z"/>
	<path d="M225.8,44.2c-2.6,0-4.6,2-4.6,4.5c0,2.5,2,4.5,4.6,4.5c2.4,0,4.4-2,4.4-4.5C230.2,46.3,228.2,44.2,225.8,44.2z"/>
	<path d="M225.7,20.6c-15.5,0-28.1,12.6-28.1,28.1s12.6,28.1,28.1,28.1s28.1-12.6,28.1-28.1S241.2,20.6,225.7,20.6z M239.2,52.9
		c0,1.4-0.1,2.8-0.5,4.1c-0.9,2.8-2.9,4.5-5.8,5c-1.4,0.2-2.9,0.2-4.4,0.3c-0.9,0-1.9,0-2.8,0c0,0,0,0,0,0c-1.9,0-3.7-0.1-5.6-0.1
		c-1.4,0-2.7-0.3-4-0.9c-2.2-1.1-3.4-3-3.7-5.3c-0.2-1.5-0.2-2.9-0.3-4.4c0-2.2,0-4.3,0-6.5c0-1.4,0-2.9,0.4-4.3
		c0.8-3,2.9-4.8,5.9-5.3c1.4-0.2,2.9-0.2,4.3-0.3c2.4,0,4.8,0,7.1,0c1.3,0,2.5,0,3.8,0.4c3,0.8,4.8,2.8,5.3,5.9
		c0.2,1.4,0.2,2.9,0.3,4.4C239.3,48.2,239.3,50.6,239.2,52.9z"/>
</g>
<g>
	<circle cx="-127.9" cy="48.8" r="28.1"/>
	<g>
		<path class="st0" d="M-127.9,62.3c-1.8,0-3.7-0.1-5.6-0.1c-1.4,0-2.7-0.3-4-0.9c-2.2-1.1-3.4-3-3.7-5.3c-0.2-1.5-0.2-2.9-0.3-4.4
			c0-2.2,0-4.3,0-6.5c0-1.4,0-2.9,0.4-4.3c0.8-3,2.9-4.8,5.9-5.3c1.4-0.2,2.9-0.2,4.3-0.3c2.4,0,4.8,0,7.2,0c1.3,0,2.5,0,3.8,0.4
			c3,0.8,4.8,2.8,5.3,5.9c0.2,1.4,0.2,2.9,0.3,4.4c0,2.4,0,4.7,0,7.1c0,1.4-0.1,2.8-0.5,4.1c-0.9,2.8-2.9,4.5-5.8,5
			c-1.4,0.2-2.9,0.2-4.4,0.3C-126,62.3-126.9,62.3-127.9,62.3C-127.9,62.3-127.9,62.3-127.9,62.3z M-127.9,59.9
			C-127.9,59.9-127.9,59.9-127.9,59.9c1.1,0,2.2,0,3.3-0.1c1.1,0,2.1-0.1,3.2-0.2c2.3-0.2,3.9-1.6,4.3-3.8c0.2-1.2,0.3-2.5,0.3-3.8
			c0-2.2,0-4.4,0-6.7c0-1.1-0.1-2.1-0.2-3.2c-0.2-2.4-1.7-4-4.1-4.4c-1.2-0.2-2.4-0.2-3.6-0.2c-2.2,0-4.3,0-6.5,0
			c-1.1,0-2.2,0.1-3.3,0.2c-2.4,0.2-4.2,2-4.4,4.4c-0.1,1-0.2,2.1-0.2,3.1c0,3.1,0,6.3,0.1,9.4c0,1.1,0.3,2.2,1,3.1
			c1,1.3,2.4,1.8,4,1.9C-131.9,59.8-129.9,59.8-127.9,59.9z"/>
		<path class="st0" d="M-120.9,48.8c0,3.9-3.2,7-7.1,7c-3.8,0-6.9-3.2-6.9-7s3.2-6.9,7-6.9C-124,41.8-120.9,44.9-120.9,48.8z
			 M-123.3,48.7c0-2.5-2-4.5-4.4-4.5c-2.6,0-4.6,2-4.6,4.5c0,2.5,2,4.5,4.6,4.5C-125.4,53.2-123.3,51.2-123.3,48.7z"/>
		<path class="st0" d="M-120.6,43.1c-0.9,0-1.6-0.7-1.6-1.6c0-0.9,0.7-1.6,1.6-1.6c0.9,0,1.6,0.7,1.6,1.6
			C-119,42.4-119.7,43.1-120.6,43.1z"/>
	</g>
</g>
<path d="M312.8,20.6c-15.5,0-28.1,12.6-28.1,28.1s12.6,28.1,28.1,28.1s28.1-12.6,28.1-28.1S328.4,20.6,312.8,20.6z M324.8,42.1
	c-0.4,0.4-0.8,0.7-1.2,1c-0.1,0.1-0.2,0.2-0.2,0.4c0.1,2.5-0.4,4.9-1.5,7.1c-2,4.2-5.2,7-9.7,8.3c-2,0.5-4,0.7-6,0.5
	c-2.3-0.2-4.5-1-6.5-2.2c0,0,0,0-0.1-0.1c3,0.3,5.6-0.5,7.9-2.2c-1.4-0.1-2.5-0.6-3.5-1.5c-0.7-0.6-1.2-1.4-1.5-2.3
	c0.8,0.1,1.6,0.1,2.4-0.1c-1.5-0.4-2.6-1.2-3.4-2.4c-0.6-0.9-0.9-1.9-0.9-3c0.8,0.4,1.5,0.6,2.4,0.7c-1.4-1-2.1-2.3-2.3-3.9
	c-0.1-1.2,0.1-2.3,0.7-3.3c2.9,3.5,6.6,5.4,11.2,5.7c0-0.3-0.1-0.6-0.1-0.8c-0.1-2.2,0.8-3.9,2.6-5.1c2-1.2,4.7-1,6.5,0.7
	c0.2,0.2,0.4,0.3,0.7,0.2c1-0.2,1.9-0.6,2.7-1.1c0.1,0,0.2-0.1,0.3-0.2c-0.4,1.3-1.2,2.2-2.2,3c0.3-0.1,0.6-0.1,1-0.2
	c0.3-0.1,0.7-0.2,1-0.3c0.3-0.1,0.6-0.2,0.9-0.3c0,0,0,0,0,0.1C325.6,41.1,325.2,41.7,324.8,42.1z"/>
<g>
	<circle cx="-213.1" cy="48.8" r="28.1"/>
	<g>
		<path class="st0" d="M-218.5,54.9c-1.4-0.1-2.5-0.6-3.5-1.5c-0.7-0.6-1.2-1.4-1.5-2.3c0.8,0.1,1.6,0.1,2.4-0.1
			c-1.5-0.4-2.6-1.2-3.4-2.4c-0.6-0.9-0.9-1.9-0.9-3c0.8,0.4,1.5,0.6,2.4,0.7c-1.4-1-2.1-2.3-2.3-3.9c-0.1-1.2,0.1-2.3,0.7-3.3
			c2.9,3.5,6.6,5.4,11.2,5.7c0-0.3-0.1-0.6-0.1-0.8c-0.1-2.2,0.8-3.9,2.6-5.1c2-1.2,4.7-1,6.4,0.7c0.2,0.2,0.4,0.3,0.7,0.2
			c1-0.2,1.9-0.6,2.7-1.1c0.1,0,0.2-0.1,0.3-0.2c-0.4,1.3-1.2,2.2-2.2,3c0.3-0.1,0.6-0.1,1-0.2c0.3-0.1,0.7-0.2,1-0.3
			c0.3-0.1,0.6-0.2,0.9-0.3c0,0,0,0,0.1,0.1c-0.4,0.5-0.9,1-1.3,1.5c-0.4,0.4-0.8,0.7-1.2,1c-0.1,0.1-0.2,0.2-0.2,0.4
			c0.1,2.5-0.4,4.9-1.5,7.1c-2,4.2-5.2,7-9.7,8.3c-2,0.5-4,0.7-6,0.5c-2.3-0.2-4.5-1-6.5-2.2c0,0-0.1,0-0.1-0.1
			C-223.4,57.4-220.8,56.7-218.5,54.9z"/>
	</g>
</g>
<g>
	<path d="M375.6,44.6C375.6,44.6,375.6,44.6,375.6,44.6C375.6,44.6,375.6,44.6,375.6,44.6c0,2.8,0,5.5,0,8.3c0,0,0,0,0,0
		c0,0,0.1,0,0.1,0c2.4-1.4,4.7-2.7,7.1-4.1c0,0,0,0,0,0c0,0,0,0,0,0C380.4,47.4,378.1,46,375.6,44.6
		C375.7,44.6,375.6,44.6,375.6,44.6z"/>
	<path d="M378.4,20.6c-15.5,0-28.1,12.6-28.1,28.1s12.6,28.1,28.1,28.1s28.1-12.6,28.1-28.1S393.9,20.6,378.4,20.6z M392.3,50
		c0,0.6,0,1.2-0.1,1.8c-0.1,1-0.1,2-0.3,3c-0.1,0.4-0.2,0.8-0.3,1.1c-0.4,0.9-1,1.6-2,1.9c-0.5,0.2-0.9,0.3-1.4,0.3
		c-1,0.1-2,0.2-2.9,0.2c-1.2,0.1-2.5,0.1-3.7,0.1c-1,0-2,0-3,0c-0.7,0-1.4,0-2,0c-1.2,0-2.4,0-3.6-0.1c-0.9,0-1.8-0.1-2.8-0.1
		c-0.6,0-1.2-0.1-1.7-0.2c-0.5,0-0.9-0.2-1.3-0.3c-0.9-0.3-1.5-1-1.8-1.9c-0.2-0.5-0.3-1.1-0.4-1.7c-0.1-1.1-0.2-2.2-0.3-3.3
		c0-0.7-0.1-1.4-0.1-2.1c0-0.4,0-0.8,0-1.2c0-0.6,0-1.2,0.1-1.9c0.1-1,0.1-2,0.3-3.1c0.1-0.4,0.2-0.7,0.3-1.1c0.4-1,1.1-1.7,2.1-2
		c0.5-0.2,1.1-0.3,1.7-0.3c0.5,0,1.1-0.1,1.6-0.1c0.5,0,1-0.1,1.5-0.1c2.1,0,4.2-0.1,6-0.1c1.8,0,3.4,0,4.9,0.1c1,0,1.9,0.1,2.9,0.1
		c0.7,0,1.4,0.1,2.1,0.2c0.5,0,1.1,0.2,1.6,0.3c0.9,0.3,1.5,0.9,1.8,1.7c0.2,0.5,0.3,1,0.4,1.6c0.1,0.8,0.2,1.5,0.2,2.3
		c0.1,1.1,0.1,2.2,0.1,3.3C392.3,49.1,392.3,49.6,392.3,50z"/>
</g>
<g>
	<circle cx="-309.9" cy="48.8" r="28.1"/>
	<g>
		<path class="st0" d="M-310.1,39c1.8,0,3.4,0,4.9,0.1c1,0,1.9,0.1,2.9,0.1c0.7,0,1.4,0.1,2.1,0.2c0.5,0,1.1,0.2,1.6,0.3
			c0.9,0.3,1.5,0.9,1.8,1.7c0.2,0.5,0.3,1,0.4,1.6c0.1,0.8,0.2,1.5,0.2,2.3c0.1,1.1,0.1,2.2,0.1,3.3c0,0.5,0,0.9,0,1.4
			c0,0.6,0,1.2-0.1,1.8c-0.1,1-0.1,2-0.3,3c-0.1,0.4-0.2,0.8-0.3,1.1c-0.4,0.9-1,1.6-2,1.9c-0.5,0.2-0.9,0.3-1.4,0.3
			c-1,0.1-2,0.2-2.9,0.2c-1.2,0.1-2.5,0.1-3.7,0.1c-1,0-2,0-3,0c-0.7,0-1.4,0-2,0c-1.2,0-2.4,0-3.6-0.1c-0.9,0-1.8-0.1-2.8-0.1
			c-0.6,0-1.2-0.1-1.7-0.2c-0.5,0-0.9-0.2-1.3-0.3c-0.9-0.3-1.5-1-1.8-1.9c-0.2-0.5-0.3-1.1-0.4-1.7c-0.1-1.1-0.2-2.2-0.3-3.3
			c0-0.7-0.1-1.4-0.1-2.1c0-0.4,0-0.8,0-1.2c0-0.6,0-1.2,0.1-1.9c0.1-1,0.1-2,0.3-3.1c0.1-0.4,0.2-0.7,0.3-1.1c0.4-1,1.1-1.7,2.1-2
			c0.5-0.2,1.1-0.3,1.7-0.3c0.5,0,1.1-0.1,1.6-0.1c0.5,0,1-0.1,1.5-0.1C-314.1,39.1-312,39-310.1,39z M-312.7,52.9
			C-312.7,52.9-312.6,52.9-312.7,52.9c0.1,0,0.1,0,0.1,0c2.4-1.4,4.7-2.7,7.1-4.1c0,0,0,0,0,0c0,0,0,0,0,0c-2.4-1.4-4.7-2.7-7.1-4.1
			c0,0-0.1,0-0.1,0c0,0,0,0,0,0c0,0,0,0,0,0C-312.7,47.4-312.7,50.1-312.7,52.9z"/>
		<path d="M-312.7,52.9c0-2.8,0-5.5,0-8.3c0,0,0,0,0,0c0,0,0,0,0,0c0,0,0.1,0,0.1,0c2.4,1.4,4.7,2.7,7.1,4.1c0,0,0,0,0,0s0,0,0,0
			c-2.4,1.4-4.7,2.7-7.1,4.1C-312.6,52.9-312.6,52.9-312.7,52.9C-312.6,52.9-312.7,52.9-312.7,52.9z"/>
	</g>
</g>
<path d="M50,21.9c-15.5,0-28.1,12.6-28.1,28.1S34.5,78.1,50,78.1S78.1,65.5,78.1,50S65.5,21.9,50,21.9z M60.7,47.4
	c-0.5,1.3-1.2,2.5-2,3.6c-1,1.6-2.2,3.1-3.4,4.5c-0.9,1-1.9,2-3,2.9c-0.7,0.5-1.4,0.9-2.2,1.2c-0.4,0.1-0.8,0.2-1.2,0.2
	c-0.6,0-1.2-0.2-1.7-0.6c-0.5-0.4-0.8-1-1.2-1.5c-0.4-0.8-0.7-1.6-1-2.5c-0.5-2-1.1-4-1.6-6c-0.2-0.8-0.5-1.5-0.8-2.2
	c-0.2-0.4-0.4-0.7-0.7-1c-0.1-0.1-0.2-0.1-0.3-0.2c-0.2-0.1-0.3-0.1-0.5,0c-0.4,0.3-0.9,0.5-1.3,0.8c-0.1,0-0.2,0.1-0.3,0.2
	c-0.4-0.5-0.7-0.9-1.1-1.4c0.1-0.1,0.2-0.2,0.2-0.2c1-0.9,2.1-1.9,3.1-2.8c0.7-0.6,1.4-1.2,2.2-1.6c0.3-0.2,0.7-0.3,1.1-0.4
	c1-0.1,1.8,0.2,2.4,1c0.4,0.5,0.6,1.2,0.8,1.8c0.1,0.5,0.2,1.1,0.3,1.6c0.1,0.6,0.2,1.2,0.3,1.8c0.1,0.7,0.2,1.4,0.4,2.1
	c0.2,0.9,0.4,1.8,0.8,2.7c0.1,0.3,0.3,0.6,0.5,0.8c0.2,0.2,0.3,0.3,0.6,0.3c0.1,0,0.3-0.1,0.4-0.2c0.3-0.2,0.5-0.4,0.7-0.7
	c0.9-1.1,1.6-2.3,2.2-3.6c0.2-0.5,0.4-1,0.3-1.6c0-0.2,0-0.5-0.1-0.7c-0.2-0.4-0.5-0.6-0.9-0.7c-0.6-0.1-1.1,0-1.7,0.2
	c-0.2,0-0.3,0.1-0.5,0.2c0.1-0.2,0.2-0.5,0.2-0.7c0.3-0.9,0.8-1.7,1.3-2.5c0.9-1.1,2-1.8,3.4-2c0.8-0.1,1.6-0.2,2.3,0
	c1.1,0.2,1.8,0.9,2.2,1.9c0.2,0.5,0.2,1.1,0.3,1.6C61.4,45.1,61.2,46.3,60.7,47.4z"/>
<g>
	<circle cx="-170.3" cy="50" r="28.1"/>
	<g>
		<path class="st0" d="M-168.7,45.5c0.1-0.2,0.1-0.5,0.2-0.7c0.3-0.9,0.8-1.7,1.4-2.5c0.9-1.1,2-1.8,3.4-2c0.8-0.1,1.6-0.2,2.3,0
			c1.1,0.2,1.8,0.9,2.2,1.9c0.2,0.5,0.2,1.1,0.3,1.6c0.1,1.2-0.2,2.4-0.6,3.5c-0.5,1.3-1.2,2.5-1.9,3.6c-1,1.6-2.2,3.1-3.4,4.5
			c-0.9,1-1.9,2-3,2.9c-0.7,0.5-1.4,0.9-2.2,1.2c-0.4,0.1-0.8,0.2-1.2,0.2c-0.6,0-1.2-0.2-1.7-0.6c-0.5-0.4-0.8-1-1.1-1.5
			c-0.4-0.8-0.7-1.6-1-2.5c-0.5-2-1.1-4-1.6-6c-0.2-0.8-0.5-1.5-0.8-2.2c-0.2-0.4-0.4-0.7-0.7-1c-0.1-0.1-0.2-0.1-0.3-0.2
			c-0.2-0.1-0.4-0.1-0.5,0c-0.4,0.3-0.9,0.5-1.3,0.8c-0.1,0-0.2,0.1-0.3,0.2c-0.4-0.5-0.7-0.9-1.1-1.4c0.1-0.1,0.2-0.2,0.2-0.2
			c1-0.9,2.1-1.9,3.1-2.8c0.7-0.6,1.4-1.2,2.2-1.6c0.3-0.2,0.7-0.3,1.1-0.4c1-0.1,1.8,0.2,2.4,1c0.4,0.5,0.6,1.2,0.8,1.8
			c0.1,0.5,0.2,1.1,0.3,1.6c0.1,0.6,0.2,1.2,0.3,1.8c0.1,0.7,0.2,1.4,0.4,2.1c0.2,0.9,0.4,1.8,0.8,2.7c0.1,0.3,0.3,0.6,0.5,0.8
			c0.1,0.2,0.3,0.3,0.6,0.3c0.1,0,0.3-0.1,0.4-0.2c0.3-0.2,0.5-0.4,0.7-0.7c0.9-1.1,1.6-2.3,2.2-3.6c0.2-0.5,0.4-1,0.4-1.6
			c0-0.2,0-0.5-0.1-0.7c-0.2-0.4-0.5-0.6-0.9-0.7c-0.6-0.1-1.1,0-1.7,0.2C-168.3,45.4-168.5,45.5-168.7,45.5z"/>
	</g>
</g>
<rect y="116.8" width="100" height="100"/>
<rect x="111.4" width="100" height="100"/>
</svg>
